# xmcd
#
# Track frame offsets: 
#        183
#        24860
#        35958
#        62735
#        92135
#        136985
#        165708
#        201560
#        228860
#        255410
#        283008
#
# Disc length: 3993 seconds
#
# Revision: 3
# Processed by: cddbd v1.5.2PL0 Copyright (c) Steve Scherf et al.
# Submitted via: ExactAudioCopy v0.99pb4
#
DISCID=990f970b
DTITLE=Fred Wesley - New Friends
DYEAR=1990
DGENRE=Funk
TTITLE0=Rockin' In Rhythm
TTITLE1=Honey Love
TTITLE2=Bright Mississippi
TTITLE3=Love We Had Stays On My Mind
TTITLE4=For The Elders
TTITLE5=Plenty, Plenty Soul
TTITLE6=Blue Monk
TTITLE7=Peace Fugue
TTITLE8=Eyes So Beautiful
TTITLE9=Birks Works
TTITLE10=D-Cup And Up
EXTD=Fred Wesley: Trombone, Vocals (Honey Love), Arranger\nStanton Dav
EXTD=is: Trumpet, Fluegelhorn\nMaceo Parker: Altosaxophone, Percussion
EXTD=\nTim Green: Tenor, Sopranosaxophone, Percussion\nGeri allen: Pia
EXTD=no, Keyboards\nAnthony Cox: Bass\nBill Stewart: Drums\n\nGuests: 
EXTD=Carmen Lundy: Vocals (Eyes..., The Love...]\nSteve Turre: Trombon
EXTD=e (For the Elders, Peace Fugue]\nRobin Eubanks: Trombone (For the
EXTD=Edlers, Peace Fugue]\n\n\n1990 Minor Music (Antilles) YEAR: 1990
EXTD=ID3G: 8
EXTT0=
EXTT1=
EXTT2=
EXTT3=
EXTT4=
EXTT5=
EXTT6=
EXTT7=
EXTT8=
EXTT9=
EXTT10=
PLAYORDER=
